<svg width="122" height="47" viewBox="0 0 122 47" fill="none" xmlns="http://www.w3.org/2000/svg">
<path d="M43.9561 7.99045V46.6227H53.833V7.99045H43.9561Z" fill="url(#paint0_linear_181_537)"/>
<path d="M53.833 7.99045L74.1039 7.99013V0C69.9525 0 65.7941 0 61.6427 0C59.0446 2.66338 56.4396 5.32676 53.8415 7.99013L53.833 7.99045Z" fill="url(#paint1_linear_181_537)"/>
<path d="M112.915 0V25.9381C112.915 34.3788 108.214 39.3809 100.042 39.3809C91.8693 39.3809 87.0992 34.3788 87.0992 25.9381V0H78.5144V25.9381C78.5144 39.0629 86.4875 47 100.042 47C113.596 47 121.5 39.0629 121.5 25.9381V0H112.915Z" fill="url(#paint2_linear_181_537)"/>
<path d="M0.500031 7.99013H15.8137V46.6224H24.5428V7.99013H39.8703V0H0.500031V7.99013Z" fill="url(#paint3_linear_181_537)"/>
<defs>
<linearGradient id="paint0_linear_181_537" x1="114" y1="32.5" x2="62.2605" y2="-64.9728" gradientUnits="userSpaceOnUse">
<stop stop-color="#E6E7E8"/>
<stop offset="0.145" stop-color="#A7A9AC"/>
<stop offset="0.51" stop-color="#BCBEC0"/>
<stop offset="0.66" stop-color="#BCBEC0"/>
<stop offset="0.91" stop-color="#D1D3D4"/>
</linearGradient>
<linearGradient id="paint1_linear_181_537" x1="114" y1="32.5" x2="62.2605" y2="-64.9728" gradientUnits="userSpaceOnUse">
<stop stop-color="#E6E7E8"/>
<stop offset="0.145" stop-color="#A7A9AC"/>
<stop offset="0.51" stop-color="#BCBEC0"/>
<stop offset="0.66" stop-color="#BCBEC0"/>
<stop offset="0.91" stop-color="#D1D3D4"/>
</linearGradient>
<linearGradient id="paint2_linear_181_537" x1="114" y1="32.5" x2="62.2605" y2="-64.9728" gradientUnits="userSpaceOnUse">
<stop stop-color="#E6E7E8"/>
<stop offset="0.145" stop-color="#A7A9AC"/>
<stop offset="0.51" stop-color="#BCBEC0"/>
<stop offset="0.66" stop-color="#BCBEC0"/>
<stop offset="0.91" stop-color="#D1D3D4"/>
</linearGradient>
<linearGradient id="paint3_linear_181_537" x1="114" y1="32.5" x2="62.2605" y2="-64.9728" gradientUnits="userSpaceOnUse">
<stop stop-color="#E6E7E8"/>
<stop offset="0.145" stop-color="#A7A9AC"/>
<stop offset="0.51" stop-color="#BCBEC0"/>
<stop offset="0.66" stop-color="#BCBEC0"/>
<stop offset="0.91" stop-color="#D1D3D4"/>
</linearGradient>
</defs>
</svg>
